<mxfile host="65bd71144e">
    <diagram id="ZsMa8KtHg-nLI0eZkou_" name="Page-1">
        <mxGraphModel dx="429" dy="489" grid="0" gridSize="10" guides="1" tooltips="1" connect="1" arrows="1" fold="1" page="1" pageScale="1" pageWidth="850" pageHeight="1100" background="#ffffff" math="0" shadow="0">
            <root>
                <mxCell id="0"/>
                <mxCell id="1" parent="0"/>
                <mxCell id="_N2Qj6Bj3DPp0mn3aGor-1" value="A" style="swimlane;fontStyle=1;startSize=23;fontSize=14;fontColor=#000000;labelBackgroundColor=#FFFFFF;labelBorderColor=#FFFFFF;swimlaneFillColor=#FFFFFF;fillStyle=auto;fillColor=#FFFFFF;gradientColor=default;rounded=0;shadow=0;whiteSpace=wrap;strokeWidth=2;strokeColor=#000000;" vertex="1" parent="1">
                    <mxGeometry x="235" y="120" width="50" height="50" as="geometry"/>
                </mxCell>
                <mxCell id="_N2Qj6Bj3DPp0mn3aGor-2" value="B" style="swimlane;fontStyle=1;fontSize=14;fontColor=#000000;labelBorderColor=none;labelBackgroundColor=#FFFFFF;strokeColor=#000000;rounded=0;shadow=0;swimlaneFillColor=none;fillColor=#FFFFFF;strokeWidth=2;" vertex="1" parent="1">
                    <mxGeometry x="515" y="120" width="50" height="50" as="geometry"/>
                </mxCell>
                <mxCell id="_N2Qj6Bj3DPp0mn3aGor-4" value="&lt;b&gt;A &quot;has a&quot; B&lt;/b&gt;" style="text;html=1;strokeColor=none;fillColor=none;align=center;verticalAlign=middle;whiteSpace=wrap;rounded=0;fontSize=14;fontColor=#000000;" vertex="1" parent="1">
                    <mxGeometry x="340" y="120" width="140" height="30" as="geometry"/>
                </mxCell>
                <mxCell id="_N2Qj6Bj3DPp0mn3aGor-5" value="&lt;b&gt;&lt;font style=&quot;font-size: 24px;&quot;&gt;AGGREGATION&lt;/font&gt;&lt;/b&gt;" style="text;html=1;strokeColor=none;fillColor=none;align=center;verticalAlign=middle;whiteSpace=wrap;rounded=0;fontSize=14;rotation=0;fontColor=#000000;" vertex="1" parent="1">
                    <mxGeometry x="260" y="20" width="280" height="90" as="geometry"/>
                </mxCell>
                <mxCell id="_N2Qj6Bj3DPp0mn3aGor-6" value="" style="endArrow=diamond;html=1;entryX=1;entryY=0.75;entryDx=0;entryDy=0;exitX=0;exitY=0.75;exitDx=0;exitDy=0;strokeWidth=3;endFill=0;endSize=15;startSize=0;rounded=0;fillColor=#d80073;strokeColor=#A50040;fontColor=#000000;" edge="1" parent="1" source="_N2Qj6Bj3DPp0mn3aGor-2" target="_N2Qj6Bj3DPp0mn3aGor-1">
                    <mxGeometry width="50" height="50" relative="1" as="geometry">
                        <mxPoint x="400" y="290" as="sourcePoint"/>
                        <mxPoint x="450" y="240" as="targetPoint"/>
                    </mxGeometry>
                </mxCell>
                <mxCell id="_N2Qj6Bj3DPp0mn3aGor-7" value="&lt;b&gt;&lt;font style=&quot;font-size: 14px;&quot;&gt;B can exist without A&lt;/font&gt;&lt;/b&gt;" style="text;html=1;align=center;verticalAlign=middle;resizable=0;points=[];autosize=1;strokeColor=none;fillColor=none;fontColor=#000000;" vertex="1" parent="1">
                    <mxGeometry x="330" y="170" width="160" height="30" as="geometry"/>
                </mxCell>
                <mxCell id="_N2Qj6Bj3DPp0mn3aGor-8" value="A" style="swimlane;fontStyle=1;startSize=23;fontSize=14;fontColor=#000000;strokeColor=#000000;strokeWidth=2;fillColor=#FFFFFF;" vertex="1" parent="1">
                    <mxGeometry x="235" y="360" width="50" height="50" as="geometry"/>
                </mxCell>
                <mxCell id="_N2Qj6Bj3DPp0mn3aGor-9" value="B" style="swimlane;fontStyle=1;fontSize=14;fontColor=#000000;strokeColor=#000000;strokeWidth=2;labelBackgroundColor=none;fillColor=#FFFFFF;" vertex="1" parent="1">
                    <mxGeometry x="515" y="360" width="50" height="50" as="geometry"/>
                </mxCell>
                <mxCell id="_N2Qj6Bj3DPp0mn3aGor-10" value="&lt;b&gt;B is &quot;part of&quot; A&lt;/b&gt;" style="text;html=1;strokeColor=none;fillColor=none;align=center;verticalAlign=middle;whiteSpace=wrap;rounded=0;fontSize=14;fontColor=#000000;" vertex="1" parent="1">
                    <mxGeometry x="330" y="360" width="140" height="30" as="geometry"/>
                </mxCell>
                <mxCell id="_N2Qj6Bj3DPp0mn3aGor-11" value="&lt;b&gt;&lt;font style=&quot;font-size: 24px;&quot;&gt;COMPOSITION&lt;/font&gt;&lt;/b&gt;" style="text;html=1;strokeColor=none;fillColor=none;align=center;verticalAlign=middle;whiteSpace=wrap;rounded=0;fontSize=14;rotation=0;fontColor=#000000;" vertex="1" parent="1">
                    <mxGeometry x="260" y="260" width="280" height="90" as="geometry"/>
                </mxCell>
                <mxCell id="_N2Qj6Bj3DPp0mn3aGor-12" value="" style="endArrow=diamond;html=1;entryX=1;entryY=0.75;entryDx=0;entryDy=0;exitX=0;exitY=0.75;exitDx=0;exitDy=0;strokeWidth=3;endFill=1;endSize=15;startSize=0;rounded=0;fillColor=#f0a30a;strokeColor=#BD7000;fontColor=#000000;" edge="1" parent="1" source="_N2Qj6Bj3DPp0mn3aGor-9" target="_N2Qj6Bj3DPp0mn3aGor-8">
                    <mxGeometry width="50" height="50" relative="1" as="geometry">
                        <mxPoint x="400" y="530" as="sourcePoint"/>
                        <mxPoint x="450" y="480" as="targetPoint"/>
                    </mxGeometry>
                </mxCell>
                <mxCell id="_N2Qj6Bj3DPp0mn3aGor-13" value="&lt;b&gt;&lt;font style=&quot;font-size: 14px;&quot;&gt;B cannot exist without A&lt;/font&gt;&lt;/b&gt;" style="text;html=1;align=center;verticalAlign=middle;resizable=0;points=[];autosize=1;strokeColor=none;fillColor=none;fontColor=#000000;" vertex="1" parent="1">
                    <mxGeometry x="315" y="410" width="190" height="30" as="geometry"/>
                </mxCell>
            </root>
        </mxGraphModel>
    </diagram>
</mxfile>